# xmcd CD database file
#
# Track frame offsets:
#	150
#	10197
#	20235
#	33737
#	44077
#	56105
#	63877
#	73120
#	85212
#	94677
#	102467
#	111132
#	121197
#	132927
#	144855
#	156240
#	165122
#	175407
#	186032
#	196027
#	206510
#	217542
#	229522
#	240107
#	251652
#	262217
#	275517
#	284957
#	293682
#	305470
#	314625
#
# Disc length: 4334 seconds
#
# Revision: 0
# Processed by: cddbd v1.5.2PL0 Copyright (c) Steve Scherf et al.
# Submitted via: CDex 1.77
#
DISCID=c510ec1f
DTITLE=Various Artist - Country Hicks - Volume 4 and 5
DYEAR=1900
DGENRE=Country
TTITLE0=I'm A Little Bit Lonesome - Charles Ross and The Boys from Paris
TTITLE1=Go South Little Man - Carlton Norris
TTITLE2=Mr Blue - Curtis and The Melody Cowboys
TTITLE3=Denomination - Millard Presley and The Presleys
TTITLE4=Love For Gold - Sterling Blythe
TTITLE5=Under Control - Howard Perkins
TTITLE6=Slue Foot - Howard Crockett
TTITLE7=The Ghost of Casey Jones - Rod Morris
TTITLE8=God's Gonna Turn Us To Dust - Johnny Tyler
TTITLE9=Faded Levi Jacket - Major Hicks and The Mountain Cats
TTITLE10=Little Judy - Charley Maybee
TTITLE11=I'm Gonna Tell - Cousin Louie
TTITLE12=Acryin' and Ahurtin' - Carl Belew and His Rock Crushers
TTITLE13=When I Was A Little Boy - Jerry Hanson
TTITLE14=Hey Miss Fannie - The Wink Westerners
TTITLE15=Move On Down The Track - Floyd Fletcher
TTITLE16=I'm Just a Cry Baby - Rob and Gladys Luter
TTITLE17=Hey Honey - Dusty Owens
TTITLE18=Pick Up Your Hammer - Larry Good
TTITLE19=Truck Drivin' Jack - Loyd Howell
TTITLE20=Lips That Kiss So Sweetly - Jimmy Lee and Wayne Walker
TTITLE21=I Do Like Girls - Easy Deal Wilson
TTITLE22=I've Got Leaving On My Mind - Billy Walker
TTITLE23=Mr Freight Train - Unknown Artist
TTITLE24=Nine Times Out Of Ten - Ford Nix and The Moonshiners
TTITLE25=Sluefoot The Bear - Howard Crockett
TTITLE26=I Got Just The One Heart To - Blankenship Bros
TTITLE27=They Went Around - Les and Helen Tussey
TTITLE28=All Them Wives - Harold Montgomery
TTITLE29=Ridin' Down the Prairie - Gene Eufield
TTITLE30=Jitterbug Drag - Walter 'Arkie' Bittle and His Flying Saucers
EXTD=
EXTT0=
EXTT1=
EXTT2=
EXTT3=
EXTT4=
EXTT5=
EXTT6=
EXTT7=
EXTT8=
EXTT9=
EXTT10=
EXTT11=
EXTT12=
EXTT13=
EXTT14=
EXTT15=
EXTT16=
EXTT17=
EXTT18=
EXTT19=
EXTT20=
EXTT21=
EXTT22=
EXTT23=
EXTT24=
EXTT25=
EXTT26=
EXTT27=
EXTT28=
EXTT29=
EXTT30=
PLAYORDER=
